<?xml version="1.0" encoding="utf-8"?>
<!-- Generator: Adobe Illustrator 24.2.1, SVG Export Plug-In . SVG Version: 6.00 Build 0)  -->
<svg version="1.1" id="Layer_1" xmlns="http://www.w3.org/2000/svg" xmlns:xlink="http://www.w3.org/1999/xlink" x="0px" y="0px"
	 viewBox="0 0 903 569" style="enable-background:new 0 0 903 569;" xml:space="preserve">
<style type="text/css">
	.st0{fill:url(#SVGID_1_);}
	.st1{fill:url(#SVGID_2_);}
	.st2{fill:url(#SVGID_3_);}
	.st3{fill:url(#SVGID_4_);}
	.st4{fill:url(#SVGID_5_);}
	.st5{fill:url(#SVGID_6_);}
	.st6{fill:url(#SVGID_7_);}
</style>
<g>
	<path d="M23.55,239.38V24.49C16.93,14.24,10.65,6.3,6.35,2h55.24c-8.6,8.27-2.65,30.1,6.95,57.89l38.04,109.83
		c3.97,11.91,8.27,23.82,12.9,35.07L206.15,2h38.7c-8.6,8.27-13.89,33.08-13.89,60.21v101.23v0.99v0.99
		c0,55.24-0.66,106.52-55.91,106.52c-52.27,0-73.11-33.74-96.93-105.86L40.75,58.24c-3.31-7.94-6.95-15.55-10.59-22.5v203.64
		c0,27.13,8.83,50.24,17.43,58.51l-47.53,0.04C8.67,289.67,23.55,266.51,23.55,239.38z M175.06,265.32
		c31.1,0,31.1-55.25,31.1-101.89V18.87l-83.03,194.18C136.68,243.16,152.89,265.32,175.06,265.32z"/>
	<path d="M462.95,210.91c-65.5,65.5-132.86,61.29-172.86,21.29s-44.68-107.84,20.82-173.33c65.96-65.96,133.8-61.28,173.8-21.29
		S528.92,144.94,462.95,210.91z M470.2,35.7C444.24,9.74,396.76,2.02,331.26,79.21C266,156.17,278.63,208.1,304.59,234.06
		c25.73,25.73,72.75,33.45,138.01-43.51C508.1,113.36,495.94,61.43,470.2,35.7z"/>
	<path d="M568.43,242.16c-92.63,0-137.29-50.61-137.29-107.18S475.8,27.14,568.43,27.14c93.29,0,137.94,51.28,137.94,107.84
		S661.71,242.16,568.43,242.16z M697.44,123.4c0-36.72-28.12-75.75-129.01-67.48c-100.56,8.27-128.35,53.92-128.35,90.64
		c0,36.39,27.79,75.09,128.35,66.82C669.32,205.11,697.44,159.79,697.44,123.4z"/>
	<path d="M758.53,66.13c-5.95-9.59-11.91-24.86-17.86-33.13v180c0,27.13,5.29,51.94,13.89,60.21h-34.4
		c8.6-8.27,13.89-33.08,13.89-60.21V24.4c-8.6-10.92-17.2-19.19-24.15-22.16h57.56c-4.63,9.26,4.96,37.1,20.84,63.89l94.61,157.79
		V68.44c0-27.13-5.29-57.94-13.89-66.21h34.4c-8.6,8.27-13.89,39.08-13.89,66.21l-3.94,444.86c-0.05,10.88,2.05,23.81,3,34.65
		l0.94,10.78l-9.38-27.73l2.76-257.8L758.53,66.13z"/>
	<path d="M13.96,502.71V358.14c0-27.13-5.29-51.94-13.89-60.21l35.36-0.55c15.55,0,23.52-4.41,37.42-4.41
		c33.74,0,79.72,15.55,79.72,75.09c0,27.79-12.24,44.33-28.78,53.92c20.84,7.94,43.67,26.13,46.98,64.51
		c5.29,58.55-37.05,81.71-84.69,81.71c-24.15,0-33.74-5.29-47.31-5.29H0.06C8.67,554.64,13.96,529.83,13.96,502.71z M91.04,415.37
		c3.97,0,10.26,0.33,17.53,1.99c12.24-9.59,21.5-28.12,17.53-59.21c-7.61-56.9-40.03-58.55-54.58-58.55
		c-30.76,0-32.75,31.43-32.75,58.22v97.59C41.75,439.85,55.64,415.37,91.04,415.37z M90.37,561.59c16.87,0,62.19-7.61,54.58-75.09
		c-5.62-50.94-37.38-62.85-60.87-62.85c-26.46,0-45.32,19.52-45.32,76.75v2.32C38.77,548.69,70.53,561.59,90.37,561.59z"/>
	<path d="M197.54,502.71V358.14c0-27.13-5.29-51.94-13.89-60.21h163.42v25.8c-8.27-8.6-20.18-19.19-60.21-19.19h-36.72
		c-27.13,0-27.79,26.46-27.79,53.59v68.14c7.28-12.9,20.51-17.86,40.36-17.86h10.92c27.13,0,51.94-8.93,60.21-17.53v41.68
		c-8.27-8.6-33.08-17.53-60.21-17.53H262.7c-27.13,0-40.36,10.26-40.36,43.67v44c0,27.13,0.66,53.59,28.12,53.59h34.07
		c43.67,0,61.53-19.52,69.14-28.12l-7.94,28.12l-1.99,6.62H183.64C192.24,554.64,197.54,529.83,197.54,502.71z"/>
	<path d="M494.91,505.02l-20.18-55.58c6.29,70.79-13.56,114.46-64.84,114.46c-51.61,0-55.24-44.99-35.06-100.23l50.28-139.6
		c-7.28-12.24-14.56-21.5-19.52-26.13h41.02l76.09,209.07c10.92,26.8,26.13,47.97,34.4,55.91h-55.24
		C510.46,554.64,504.5,532.81,494.91,505.02z M409.89,557.29c23.16,0,37.71-18.86,42.01-52.6c1.65-25.8-11.25-37.05-30.43-38.37
		l30.1-15.22l20.18-9.93L440,353.84c-3.31-7.94-6.95-15.55-10.59-22.5l-47.31,131.66C361.93,518.58,364.24,557.29,409.89,557.29z"/>
	<path d="M500.4,430.26c0-92.63,50.61-137.29,107.18-137.29c22.83,0,44.99,7.28,63.18,22.17l-25.47,32.42
		c-7.94-30.77-30.43-45.65-49.29-45.65c-36.39,0-75.09,27.79-66.82,128.35c8.27,100.9,66.82,122.4,103.21,122.4
		c63.18,0,85.35-53.92,85.35-83.36V358.14c0-27.13-5.29-51.94-13.89-60.21h52.6c-8.6,8.27-13.89,33.08-13.89,60.21v79.39
		c7.28-12.57,21.17-17.86,42.01-18.19c61.2-1.32,86.1-23.48,87.42-69.13c-0.66-24.81,11.34-332.26,3.4-339.87l22.31-3.97
		c-8.6,8.27-13.89,39.08-13.89,66.21v430.12c0,27.13,5.29,51.94,13.89,60.21h-52.6c8.6-8.27,13.89-33.08,13.89-60.21v-91.3
		c-15.88,10.59-39.7,13.89-73.11,14.56c-30.1,0.66-43.34,9.92-43.34,43.33v33.41c0,27.13,5.29,51.94,13.89,60.21h-52.6
		c8.6-8.27,13.89-33.08,13.89-60.21c-12.24,32.09-42.01,65.5-96.93,65.5C564.25,568.2,500.4,523.55,500.4,430.26z"/>
	<path d="M369.99,67.85c0,0,69.06,125.57,251.8,51.56C621.79,119.4,427.53,265.91,369.99,67.85z"/>
</g>
<g>
	<path d="M329.95-685.33v39.23c0,9.57,0,20.3-2.83,26.41c1.21,1.32,2.49,2.56,3.84,3.71c4.86-4.1,6.16-11.62,6.5-20.29
		c-0.15-0.42-0.29-0.84-0.43-1.27c-1.09-3.38-1.77-6.79-2.06-10.19c-0.61-6.85,0.34-13.63,2.62-19.89v-9.66
		c0-5.83,0.79-11.31,2.17-14.95C336.15-690.34,332.86-688.02,329.95-685.33z M320.15-614.73c-6.72-0.14-11.65-6.92-15.78-16.09
		l3.42-7.99l7.35-17.2l10.74-25.1c-1.75,2.07-3.31,4.29-4.67,6.62c-0.92,1.57-1.74,3.2-2.46,4.87c-0.13,0.27-0.24,0.55-0.35,0.82
		l-11.31,26.45l-3.84,8.99c-1.42-3.47-2.75-7.14-3.97-10.81l-11.72-33.82c-2.95-8.56-4.79-15.29-2.14-17.83h-17.01
		c1.32,1.32,3.26,3.77,5.29,6.92v66.19c0,8.36-4.58,15.49-7.23,18.04l14.64-0.02c-2.65-2.54-5.37-9.66-5.37-18.02v-62.72
		c1.12,2.14,2.24,4.48,3.26,6.93l11.52,33.21c7.33,22.22,13.75,32.61,29.85,32.61c0.56,0,1.1-0.02,1.62-0.06
		c-0.39-0.39-0.77-0.79-1.14-1.2C320.61-614.2,320.37-614.46,320.15-614.73z"/>
	<path d="M372.77-606.12c-3.02,0.77-6.06,1.23-9.08,1.39c-0.8,0.04-1.59,0.06-2.38,0.06c-7.76,0-15.3-1.96-21.98-5.55
		c-2.98-1.6-5.79-3.53-8.37-5.76c-1.35-1.15-2.63-2.39-3.84-3.71c-4.4-4.79-7.86-10.58-9.99-17.18c-0.62-1.94-1.12-3.89-1.48-5.85
		c-0.83-4.47-0.98-8.94-0.51-13.29l-7.35,17.2c-0.19-0.8-0.36-1.59-0.5-2.37c-0.07-0.39-0.14-0.78-0.2-1.17l11.31-26.45
		c0.11-0.27,0.22-0.55,0.35-0.82c0.72-1.67,1.54-3.3,2.46-4.87c1.36-2.33,2.92-4.55,4.67-6.62c1.26-1.49,2.62-2.91,4.07-4.22
		c2.91-2.69,6.2-5.01,9.81-6.9c2.31-1.21,4.75-2.24,7.32-3.07c7.6-2.44,15.36-2.83,22.69-1.47c-0.93,0.24-1.86,0.51-2.79,0.81
		c-12.3,3.96-21.8,12.57-27.2,23.26c-0.83,1.65-1.56,3.34-2.19,5.08c-2.28,6.26-3.23,13.04-2.62,19.89
		c0.29,3.4,0.97,6.81,2.06,10.19c0.14,0.43,0.28,0.85,0.43,1.27c0.55,1.55,1.18,3.05,1.87,4.51c5.09,10.69,13.92,18.71,24.36,22.97
		C366.61-607.6,369.65-606.7,372.77-606.12z"/>
	<path d="M372.77-606.12c-3.02,0.77-6.06,1.23-9.08,1.39c-0.8,0.04-1.59,0.06-2.38,0.06c-7.76,0-15.3-1.96-21.98-5.55
		c-2.98-1.6-5.79-3.53-8.37-5.76c-1.35-1.15-2.63-2.39-3.84-3.71c-4.4-4.79-7.86-10.58-9.99-17.18c-0.62-1.94-1.12-3.89-1.48-5.85
		c-0.83-4.47-0.98-8.94-0.51-13.29c0.47-4.43,1.58-8.73,3.26-12.79c0.11-0.27,0.22-0.55,0.35-0.82c0.72-1.67,1.54-3.3,2.46-4.87
		c1.36-2.33,2.92-4.55,4.67-6.62c1.26-1.49,2.62-2.91,4.07-4.22c2.91-2.69,6.2-5.01,9.81-6.9c2.31-1.21,4.75-2.24,7.32-3.07
		c7.6-2.44,15.36-2.83,22.69-1.47c-0.93,0.24-1.86,0.51-2.79,0.81c-12.3,3.96-21.8,12.57-27.2,23.26c-0.83,1.65-1.56,3.34-2.19,5.08
		c-2.28,6.26-3.23,13.04-2.62,19.89c0.29,3.4,0.97,6.81,2.06,10.19c0.14,0.43,0.28,0.85,0.43,1.27c0.55,1.55,1.18,3.05,1.87,4.51
		c5.09,10.69,13.92,18.71,24.36,22.97C366.61-607.6,369.65-606.7,372.77-606.12z"/>
</g>
<g>
	<g>
		<linearGradient id="SVGID_1_" gradientUnits="userSpaceOnUse" x1="-739.0258" y1="162.0323" x2="-543.188" y2="623.0044">
			<stop  offset="0" style="stop-color:#3668B2"/>
			<stop  offset="0.1485" style="stop-color:#3A6CB2"/>
			<stop  offset="0.3722" style="stop-color:#4377B5"/>
			<stop  offset="0.6434" style="stop-color:#518BBB"/>
			<stop  offset="0.9494" style="stop-color:#66AAC3"/>
			<stop  offset="1" style="stop-color:#6AB0C4"/>
		</linearGradient>
		<path class="st0" d="M-447.18,307.62c-30.26-11.82-62.16-17.81-94.82-17.81c-6.27,0-12.48,0.22-18.63,0.66
			c-17.03,1.21-33.6,4.04-49.55,8.35c-106.98,28.95-185.7,124.26-185.7,237.05c0,4.55,0.13,9.09,0.39,13.58
			c0.59,10.75,1.92,21.33,3.92,31.68c12.79-3.93,24.95-9.87,36.87-16.52c-1.34-9.4-2.04-18.99-2.04-28.74
			c0-0.98,0.01-1.98,0.02-2.97c1.56-107.5,87.63-195.56,196.58-204.42c5.98-0.5,12.03-0.74,18.13-0.74c11.68,0,23.25,0.9,34.64,2.7
			c-7.79,4.92-15.28,10.27-22.47,15.99c-18,14.37-33.98,31.16-47.49,50.06c-20.75,28.99-34.62,61.54-41.01,95.82
			c-1.97,10.44-3.22,21.04-3.77,31.75c13.51,3.56,26.3,9.53,38.84,16.39c-0.02-1.33-0.03-2.65-0.03-3.99
			c0-9.4,0.64-18.67,1.89-27.79c7.79-57.21,39.46-107.95,87.21-141.11c10.08-7.01,20.88-13.23,32.33-18.55
			c4.74-2.22,9.59-4.28,14.55-6.18c7.45-2.85,12.35-9.8,12.39-17.57C-434.9,317.52-439.75,310.52-447.18,307.62z M-748.28,593.79
			c-11.53,6.67-23.21,12.91-35.41,17.49c3.2,9.62,6.99,18.98,11.34,28.04c11.68-5.39,22.97-11.99,34.22-18.7
			C-742.13,611.97-745.52,603.01-748.28,593.79z M-437.05,742.61c-1.48-5.83-5.76-10.74-11.68-13.05
			c-9.21-3.6-18.07-7.76-26.51-12.43c-24.27-13.4-45.19-30.97-62-51.6c0,0,0-0.01-0.01-0.01c-22.35-12.02-43.72-27.07-66.69-36.72
			c6.61,15.81,14.95,30.99,24.95,45.31c0.01,0,0.01,0.01,0.01,0.01c0.38,0.54,0.76,1.09,1.15,1.63
			c18.62,26.24,42.02,48.47,68.96,65.8c-1.58,0.23-3.13,0.45-4.7,0.66h-0.01c-9.38,1.21-18.85,1.82-28.41,1.82
			c-11.59,0-22.96-0.89-34.05-2.62c-0.01,0-0.01,0-0.01,0c-25.34-3.93-49.21-12.17-70.79-23.93c-0.01-0.01-0.01-0.01-0.02-0.01
			c-13.56-7.38-26.22-16.15-37.76-26.12c-8.13-7.02-15.71-14.62-22.67-22.76c-6.28-7.34-12.05-15.09-17.25-23.21
			c-11.17,6.54-22.23,13.42-33.54,19.55c5.13,8.05,10.74,15.81,16.79,23.21c6.06,7.45,12.57,14.57,19.48,21.29
			c7.44,7.23,15.32,14.02,23.63,20.33c43.11,32.7,97.34,52.2,156.19,52.2c13.49,0,26.85-1.03,40.02-3.06h0.01
			c18.12-2.79,35.88-7.51,53.11-14.1c7.45-2.85,12.35-9.81,12.38-17.57C-436.47,745.65-436.67,744.09-437.05,742.61z
			 M-579.57,575.34c-13.55-7.62-27.34-14.37-41.97-18.3c0.99,11.65,2.83,23.14,5.48,34.43c16.93,5.4,32.79,14.33,48.57,23.69
			C-572.85,602.42-576.91,589.09-579.57,575.34z"/>
		<linearGradient id="SVGID_2_" gradientUnits="userSpaceOnUse" x1="-796.5531" y1="186.472" x2="-600.7153" y2="647.4441">
			<stop  offset="0" style="stop-color:#3668B2"/>
			<stop  offset="0.1485" style="stop-color:#3A6CB2"/>
			<stop  offset="0.3722" style="stop-color:#4377B5"/>
			<stop  offset="0.6434" style="stop-color:#518BBB"/>
			<stop  offset="0.9494" style="stop-color:#66AAC3"/>
			<stop  offset="1" style="stop-color:#6AB0C4"/>
		</linearGradient>
		<path class="st1" d="M-369.3,535.64L-369.3,535.64c0,5.2-2.8,9.98-7.34,12.5c-37.27,20.74-73.94,44.02-115.52,36.18
			c-33.05-6.23-61.36-27.57-91.1-43.85v-0.01c-12.54-6.86-25.33-12.83-38.84-16.39c-8.39-2.22-17.06-3.51-26.12-3.51
			c-39.89,0-72.22,24.95-106.48,44.06c-11.92,6.65-24.08,12.6-36.87,16.52c-4.16,1.3-8.4,2.36-12.71,3.18
			c-41.69,7.86-78.27-15.44-115.52-36.19c-4.53-2.52-7.33-7.3-7.33-12.49v0c0-10.94,11.77-17.83,21.31-12.48
			c32.52,18.25,65.08,35.21,101.54,28.33c2.97-0.56,5.9-1.24,8.8-2.04c13.51-3.66,26.28-9.68,38.77-16.55
			c35.02-19.22,67.84-45.16,108.5-45.16c10.42,0,20.33,1.7,29.89,4.57c12.79,3.82,24.97,9.71,36.93,16.36
			c29.07,16.14,56.9,36.72,89.25,42.82c36.37,6.86,69-10.1,101.55-28.34C-381.07,517.82-369.3,524.71-369.3,535.64z"/>
		<linearGradient id="SVGID_3_" gradientUnits="userSpaceOnUse" x1="-820.1697" y1="196.5051" x2="-624.3318" y2="657.4772">
			<stop  offset="0" style="stop-color:#3668B2"/>
			<stop  offset="0.1485" style="stop-color:#3A6CB2"/>
			<stop  offset="0.3722" style="stop-color:#4377B5"/>
			<stop  offset="0.6434" style="stop-color:#518BBB"/>
			<stop  offset="0.9494" style="stop-color:#66AAC3"/>
			<stop  offset="1" style="stop-color:#6AB0C4"/>
		</linearGradient>
		<path class="st2" d="M-369.3,601.26v0.02c0,5.18-2.8,9.96-7.33,12.49c-37.27,20.75-73.95,44.03-115.52,36.19
			c-27.17-5.12-51.14-20.45-75.34-34.8c-15.77-9.35-31.64-18.29-48.56-23.69c-10.26-3.29-20.9-5.27-32.16-5.27
			c-33.41,0-61.52,17.51-89.91,34.42c-11.25,6.71-22.54,13.31-34.22,18.7c-10.27,4.74-20.84,8.54-31.94,10.64
			c-41.7,7.85-78.28-15.45-115.53-36.2c-4.53-2.52-7.33-7.3-7.33-12.48l0,0c0-10.93,11.77-17.82,21.31-12.47
			c32.52,18.25,65.08,35.22,101.55,28.34c7.06-1.33,13.91-3.35,20.59-5.86c12.2-4.58,23.88-10.81,35.41-17.49
			c31.92-18.48,62.68-40.41,100.06-40.41c9.26,0,18.11,1.34,26.68,3.66c14.64,3.93,28.43,10.67,41.97,18.3
			c28.41,15.98,55.74,35.83,87.42,41.8c36.38,6.86,69-10.1,101.55-28.35C-381.07,583.44-369.3,590.33-369.3,601.26z"/>
		<linearGradient id="SVGID_4_" gradientUnits="userSpaceOnUse" x1="-843.79" y1="206.5399" x2="-647.9521" y2="667.512">
			<stop  offset="0" style="stop-color:#3668B2"/>
			<stop  offset="0.1485" style="stop-color:#3A6CB2"/>
			<stop  offset="0.3722" style="stop-color:#4377B5"/>
			<stop  offset="0.6434" style="stop-color:#518BBB"/>
			<stop  offset="0.9494" style="stop-color:#66AAC3"/>
			<stop  offset="1" style="stop-color:#6AB0C4"/>
		</linearGradient>
		<path class="st3" d="M-369.3,666.9v0.01c0,5.19-2.81,9.97-7.35,12.5c-32.12,17.88-63.82,37.65-98.6,37.72
			c-5.55,0.01-11.18-0.48-16.91-1.55c-31.46-5.93-58.62-25.55-86.83-41.46c0,0,0-0.01-0.01-0.01
			c-21.65-12.24-43.93-22.28-69.23-22.28c-21.38,0-40.59,7.17-59.09,16.77c-11.5,5.96-22.71,12.85-34,19.55
			c-20.09,11.91-40.43,23.19-62.98,27.44c-41.69,7.86-78.27-15.44-115.52-36.19c-4.53-2.52-7.33-7.3-7.33-12.49l0,0
			c0-10.94,11.77-17.83,21.31-12.48c32.52,18.25,65.08,35.21,101.54,28.33c16.3-3.08,31.46-9.83,46.19-17.83
			c11.31-6.13,22.36-13.01,33.54-19.55c23.91-13.99,48.24-26.36,76.34-26.36c15.74,0,30.3,3.89,44.28,9.78
			c22.97,9.65,44.34,24.71,66.69,36.72c0.01,0,0.01,0.01,0.01,0.01c14.39,7.74,29.19,14.23,45.09,17.23
			c36.37,6.86,69-10.1,101.55-28.34C-381.07,649.07-369.3,655.96-369.3,666.9z"/>
		<linearGradient id="SVGID_5_" gradientUnits="userSpaceOnUse" x1="-982.7999" y1="265.5964" x2="-786.9621" y2="726.5685">
			<stop  offset="0" style="stop-color:#3668B2"/>
			<stop  offset="0.1485" style="stop-color:#3A6CB2"/>
			<stop  offset="0.3722" style="stop-color:#4377B5"/>
			<stop  offset="0.6434" style="stop-color:#518BBB"/>
			<stop  offset="0.9494" style="stop-color:#66AAC3"/>
			<stop  offset="1" style="stop-color:#6AB0C4"/>
		</linearGradient>
		<path class="st4" d="M-692.84,694.55c4.8-2.03,10.34-1.29,14.41,1.96c9.83,7.86,20.39,14.88,31.55,20.96
			c-0.45-0.01-0.89-0.01-1.34-0.01c-17.9,0-34.27,5.02-49.98,12.29c-35.46,16.39-67.53,44.18-106.09,51.46
			c-41.7,7.85-78.28-15.45-115.53-36.2c-4.53-2.52-7.33-7.3-7.33-12.48l0,0c0-10.93,11.77-17.82,21.31-12.47
			c32.52,18.25,65.08,35.22,101.55,28.34c29.84-5.62,55.81-23.56,82.46-38.97C-712.32,703.92-702.73,698.73-692.84,694.55z"/>
		<linearGradient id="SVGID_6_" gradientUnits="userSpaceOnUse" x1="-750.8207" y1="167.0432" x2="-554.9829" y2="628.0153">
			<stop  offset="0" style="stop-color:#3668B2"/>
			<stop  offset="0.1485" style="stop-color:#3A6CB2"/>
			<stop  offset="0.3722" style="stop-color:#4377B5"/>
			<stop  offset="0.6434" style="stop-color:#518BBB"/>
			<stop  offset="0.9494" style="stop-color:#66AAC3"/>
			<stop  offset="1" style="stop-color:#6AB0C4"/>
		</linearGradient>
		<path class="st5" d="M-436.49,747.22c-0.02,7.75-4.92,14.72-12.38,17.57c-17.23,6.59-34.98,11.31-53.11,14.1h-0.01
			c-26.32-7.42-49.89-23.59-74.07-37.49c11.09,1.73,22.46,2.62,34.05,2.62c9.56,0,19.04-0.61,28.41-1.82h0.01
			c6.95,2.67,14.07,4.8,21.43,6.19c19.24,3.63,37.43,0.59,55.1-5.78C-436.68,744.09-436.48,745.64-436.49,747.22z"/>
		<linearGradient id="SVGID_7_" gradientUnits="userSpaceOnUse" x1="-774.1384" y1="176.9494" x2="-578.3005" y2="637.9214">
			<stop  offset="0" style="stop-color:#3668B2"/>
			<stop  offset="0.1485" style="stop-color:#3A6CB2"/>
			<stop  offset="0.3722" style="stop-color:#4377B5"/>
			<stop  offset="0.6434" style="stop-color:#518BBB"/>
			<stop  offset="0.9494" style="stop-color:#66AAC3"/>
			<stop  offset="1" style="stop-color:#6AB0C4"/>
		</linearGradient>
		<path class="st6" d="M-369.3,413.12v122.41h-32.45V422.36l-92.45-54.78l-35.64-21.14c7.18-5.72,14.68-11.07,22.47-15.99
			c-11.39-1.8-22.96-2.7-34.64-2.7c-6.11,0-12.16,0.24-18.13,0.74l-50.05-29.67l-36.73-21.76l-247.75,145.63v114.22h-32.45v-123.5
			c0-5.75,3.05-11.07,8.01-13.99l264.01-155.19c5.1-3,11.43-2.98,16.51,0.03l77.95,46.2l98.78,58.55l84.63,50.15
			C-372.32,402.1-369.3,407.4-369.3,413.12z"/>
	</g>
</g>
</svg>
