<svg xmlns="http://www.w3.org/2000/svg" id="Layer_1" data-name="Layer 1" viewBox="0 0 80 80"><defs><style>      .cls-1 {        fill: #eee3c3;        stroke-width: 0px;      }    </style></defs><path class="cls-1" d="m26.14,47.32c-3.26,0-5.91-2.65-5.91-5.91s2.65-5.91,5.91-5.91,5.91,2.65,5.91,5.91-2.65,5.91-5.91,5.91Zm0-9.85c-2.17,0-3.94,1.77-3.94,3.94s1.77,3.94,3.94,3.94,3.94-1.77,3.94-3.94-1.77-3.94-3.94-3.94Z"></path><path class="cls-1" d="m40,47.32c-3.26,0-5.91-2.65-5.91-5.91s2.65-5.91,5.91-5.91,5.91,2.65,5.91,5.91-2.65,5.91-5.91,5.91Zm0-9.85c-2.17,0-3.94,1.77-3.94,3.94s1.77,3.94,3.94,3.94,3.94-1.77,3.94-3.94-1.77-3.94-3.94-3.94Z"></path><path class="cls-1" d="m53.86,47.32c-3.26,0-5.91-2.65-5.91-5.91s2.65-5.91,5.91-5.91,5.91,2.65,5.91,5.91-2.65,5.91-5.91,5.91Zm0-9.85c-2.17,0-3.94,1.77-3.94,3.94s1.77,3.94,3.94,3.94,3.94-1.77,3.94-3.94-1.77-3.94-3.94-3.94Z"></path><path class="cls-1" d="m26.14,61.49c-3.26,0-5.91-2.65-5.91-5.91s2.65-5.91,5.91-5.91,5.91,2.65,5.91,5.91-2.65,5.91-5.91,5.91Zm0-9.85c-2.17,0-3.94,1.77-3.94,3.94s1.77,3.94,3.94,3.94,3.94-1.77,3.94-3.94-1.77-3.94-3.94-3.94Z"></path><path class="cls-1" d="m40,61.49c-3.26,0-5.91-2.65-5.91-5.91s2.65-5.91,5.91-5.91,5.91,2.65,5.91,5.91-2.65,5.91-5.91,5.91Zm0-9.85c-2.17,0-3.94,1.77-3.94,3.94s1.77,3.94,3.94,3.94,3.94-1.77,3.94-3.94-1.77-3.94-3.94-3.94Z"></path><path class="cls-1" d="m53.86,61.49c-3.26,0-5.91-2.65-5.91-5.91s2.65-5.91,5.91-5.91,5.91,2.65,5.91,5.91-2.65,5.91-5.91,5.91Zm0-9.85c-2.17,0-3.94,1.77-3.94,3.94s1.77,3.94,3.94,3.94,3.94-1.77,3.94-3.94-1.77-3.94-3.94-3.94Z"></path><path class="cls-1" d="m26.14,75.66c-3.26,0-5.91-2.65-5.91-5.91s2.65-5.91,5.91-5.91,5.91,2.65,5.91,5.91-2.65,5.91-5.91,5.91Zm0-9.85c-2.17,0-3.94,1.77-3.94,3.94s1.77,3.94,3.94,3.94,3.94-1.77,3.94-3.94-1.77-3.94-3.94-3.94Z"></path><path class="cls-1" d="m40,75.66c-3.26,0-5.91-2.65-5.91-5.91s2.65-5.91,5.91-5.91,5.91,2.65,5.91,5.91-2.65,5.91-5.91,5.91Zm0-9.85c-2.17,0-3.94,1.77-3.94,3.94s1.77,3.94,3.94,3.94,3.94-1.77,3.94-3.94-1.77-3.94-3.94-3.94Z"></path><path class="cls-1" d="m53.86,75.66c-3.26,0-5.91-2.65-5.91-5.91s2.65-5.91,5.91-5.91,5.91,2.65,5.91,5.91-2.65,5.91-5.91,5.91Zm0-9.85c-2.17,0-3.94,1.77-3.94,3.94s1.77,3.94,3.94,3.94,3.94-1.77,3.94-3.94-1.77-3.94-3.94-3.94Z"></path><path class="cls-1" d="m15.33,32.25c-.94,0-1.9-.02-2.85-.08-2.7-.18-5.08-2.39-5.54-5.14-.09-.52-.13-1.04-.13-1.57,0-.77,0-1.53,0-2.3,0-1.25.01-2.5-.02-3.75-.06-2.31.73-4.33,2.44-6.18,1.4-1.52,3.21-2.8,5.68-4.03,3.62-1.79,7.66-3.01,12.7-3.85,7.14-1.19,14.46-1.33,21.75-.42,6.21.77,11.15,2.14,15.55,4.3,2.57,1.26,4.46,2.61,5.93,4.24,1.66,1.84,2.44,3.83,2.38,6.09-.05,1.66-.05,3.39,0,5.28.04,1.56-.09,3.36-1.32,4.97l-.09.1-.99.95c-.92.6-2.06,1.22-3.45,1.34h-.12c-.15.03-.29.04-.44.04h-2.79c-2.5,0-5.01.01-7.51,0-2.99-.02-5.37-1.85-6.06-4.67-.31-1.29-.19-2.55.38-3.74.6-1.28.68-2.46.22-3.61-.31-.78-.83-1.37-1.58-1.81-2.02-1.17-4.38-1.82-7.44-2.03-3.49-.24-6.56.1-9.35,1.06-1.13.39-2.29.85-3.02,1.81-1.02,1.35-1.24,2.69-.66,4.08.51,1.21.97,2.68.54,4.31-.68,2.6-2.86,4.42-5.44,4.54-1.55.07-3.11.06-4.63.05h-1.44c-.47,0-.92,0-1.38,0-.44,0-.88,0-1.32,0ZM39.9,6.31c-4.02,0-8.02.33-11.96.98-4.85.81-8.7,1.97-12.15,3.67-2.29,1.13-3.86,2.24-5.11,3.6-1.34,1.46-1.96,3.02-1.92,4.79.03,1.27.03,2.54.02,3.82,0,.76,0,1.52,0,2.27,0,.42.04.85.11,1.26.31,1.87,1.91,3.37,3.72,3.49,1.33.09,2.7.08,4.03.07.46,0,.92,0,1.4,0h1.45c1.49.02,3.03.02,4.53-.05,1.71-.08,3.16-1.31,3.62-3.07.26-1.01.01-1.95-.45-3.06-.85-2.04-.54-4.12.9-6.03,1.07-1.41,2.6-2.03,3.96-2.49,3.05-1.04,6.36-1.42,10.13-1.16,3.37.23,6,.96,8.29,2.29,1.14.66,1.95,1.6,2.42,2.79.66,1.66.56,3.4-.27,5.18-.37.79-.45,1.58-.24,2.43.47,1.94,2.07,3.15,4.16,3.17,2.5.02,5,.01,7.5,0h2.79c.08,0,.16-.01.24-.02h.15c.92-.09,1.73-.52,2.46-.99l.7-.7c.82-1.1.9-2.42.87-3.67-.05-1.93-.05-3.69,0-5.38.05-1.73-.56-3.27-1.87-4.71-1.3-1.44-3-2.65-5.34-3.8-4.2-2.06-8.94-3.37-14.92-4.11-3.07-.38-6.15-.57-9.22-.57Z"></path></svg>